# xmcd
#
# Track frame offsets:
#	150
#	5665
#	21312
#	32661
#	51209
#	67154
#	82079
#	95256
#	109257
#	123186
#	138720
#	158294
#	177342
#	189732
#	201154
#	217449
#	229208
#	244643
#	264164
#	276074
#	289154
#	307486
#
# Disc length: 4243 seconds
#
# Revision: 3
# Processed by: cddbd v1.5.2PL0 Copyright (c) Steve Scherf et al.
# Submitted via: audiograbber 1.83.01
#
DISCID=4f109116
DTITLE=Asleep At The Wheel - Still The King, Celebrating The Music Of Bob Wills
DTITLE=and His Texas Playboys
DYEAR=2015
DGENRE=Country
TTITLE0=Intro- Texas Playboy Theme w Leon Rausch
TTITLE1=I Hear Ya Talkin' w Amos Lee
TTITLE2=The Girl I Left Behind w The Avett Brothers
TTITLE3=Trouble In Mind w Lyle Lovett
TTITLE4=Keeper Of My Heart w Merle Haggard and Emily Gimble
TTITLE5=I Can't Give You Anything But Love w Kat Edmonson and Ray Benson
TTITLE6=Tiger Rag w Old Crow Medicine Show
TTITLE7=What's The Matter With The Mill w Pokey LaFarge
TTITLE8=Navajo Trail w Willie Nelson and The Quebe Sisters
TTITLE9=Silver Dew On The Bluegrass Tonight w Del McCoury Band
TTITLE10=Faded Love w The Time Jumpers
TTITLE11=South Of The Border (Down Mexico Way) w George Strait
TTITLE12=I Had Someone Else Before I Had You w Elizabeth Cook
TTITLE13=My Window Faces The South - Brad Paisley
TTITLE14=Time Changes Everything w Buddy Miller
TTITLE15=A Good Man Is Hard To Find w Carrie Rodriquez and Emily Gimble
TTITLE16=Ding Dong Daddy From Dumas w Robert Earl King and Ray Benson
TTITLE17=Brain Cloudy Blues w Jamey Johnson and Ray Benson
TTITLE18=Bubbles In My Beer w The Devil Makes Three
TTITLE19=It's All Your Fault w Katie Shore
TTITLE20=Twin Guitar Special w Tommy Emmanuel, Brent Mason, and Billy Briggs
TTITLE21=Bob Wills Is Still The King w Shooter Jennings, Randy Rogers, and Reck
TTITLE21=less Kelly
EXTD=YEAR: 2015
EXTT0=
EXTT1=
EXTT2=
EXTT3=
EXTT4=
EXTT5=
EXTT6=
EXTT7=
EXTT8=
EXTT9=
EXTT10=
EXTT11=
EXTT12=
EXTT13=
EXTT14=
EXTT15=
EXTT16=
EXTT17=
EXTT18=
EXTT19=
EXTT20=
EXTT21=
PLAYORDER=
